<svg xmlns="http://www.w3.org/2000/svg" width="16" height="16" version="1.0"><path style="marker:none" overflow="visible" fill="none" d="M0 0h16v16H0z"/><circle style="marker:none" cx="7.991" cy="9.003" r="3" fill="#241f31"/><path style="marker:none" d="M2.834 1.128l3.212 8.406 1.931-.692.947-1.977z" fill="#241f31"/><path style="marker:none" d="M7.876 1.747a7.3 7.3 0 0 0-4.74 2.429A7.238 7.238 0 0 0 1.37 9.198c.041.955.278 1.902.69 2.765l.616-.166a5.832 5.832 0 0 1-.616-2.599 5.88 5.88 0 0 1 1.703-4.112 5.89 5.89 0 0 1 4.113-1.704c1.523 0 3.037.626 4.114 1.702a5.873 5.873 0 0 1 1.702 4.114 5.817 5.817 0 0 1-.62 2.599l2.085 1.04c.577-1.119.875-2.38.861-3.639-.023-2.068-.92-4.116-2.439-5.519-1.52-1.402-3.645-2.132-5.703-1.932z" fill="#241f31"/></svg>