<?xml version="1.0" encoding="utf-8"?>
<!-- Generator: Adobe Illustrator 15.0.2, SVG Export Plug-In . SVG Version: 6.00 Build 0)  -->
<!DOCTYPE svg PUBLIC "-//W3C//DTD SVG 1.1//EN" "http://www.w3.org/Graphics/SVG/1.1/DTD/svg11.dtd">
<svg version="1.1" id="Layer_1" xmlns="http://www.w3.org/2000/svg" xmlns:xlink="http://www.w3.org/1999/xlink" x="0px" y="0px"
	 width="24px" height="24px" viewBox="0 0 24 24" enable-background="new 0 0 24 24" xml:space="preserve">
<radialGradient id="SVGID_1_" cx="-19.4014" cy="151.5156" r="9.6877" gradientTransform="matrix(1.3874 0 0 0.2103 39.1318 -10.5071)" gradientUnits="userSpaceOnUse">
	<stop  offset="0" style="stop-color:#381210"/>
	<stop  offset="0.1025" style="stop-color:#401D1A;stop-opacity:0.8975"/>
	<stop  offset="0.2873" style="stop-color:#553632;stop-opacity:0.7127"/>
	<stop  offset="0.5333" style="stop-color:#7D615C;stop-opacity:0.4667"/>
	<stop  offset="0.8277" style="stop-color:#C2B3B0;stop-opacity:0.1723"/>
	<stop  offset="1" style="stop-color:#FFFFFF;stop-opacity:0"/>
</radialGradient>
<ellipse fill="url(#SVGID_1_)" cx="11.966" cy="21.356" rx="13.765" ry="2.087"/>
<radialGradient id="SVGID_2_" cx="12.3228" cy="16.7402" r="21.8079" fx="6.7895" fy="16.7558" gradientUnits="userSpaceOnUse">
	<stop  offset="0" style="stop-color:#F15F59"/>
	<stop  offset="0.3988" style="stop-color:#D92526"/>
	<stop  offset="0.8913" style="stop-color:#6F1210"/>
	<stop  offset="1" style="stop-color:#381210"/>
</radialGradient>
<path fill="url(#SVGID_2_)" stroke="#921A1D" stroke-width="0.75" stroke-miterlimit="10" d="M22.438,18.428
	c0,1.865-1.512,3.378-3.379,3.378H4.871c-1.866,0-3.378-1.513-3.378-3.378V4.238c0-1.865,1.512-3.378,3.378-3.378h14.188
	c1.867,0,3.379,1.513,3.379,3.378V18.428z"/>
<linearGradient id="SVGID_3_" gradientUnits="userSpaceOnUse" x1="11.9653" y1="1.707" x2="11.9653" y2="15.4988">
	<stop  offset="0" style="stop-color:#FFFFFF;stop-opacity:0.17"/>
	<stop  offset="1" style="stop-color:#FFFFFF;stop-opacity:0"/>
</linearGradient>
<path fill="url(#SVGID_3_)" d="M21.633,11.53c0,1.809-1.396,3.273-3.117,3.273H5.417c-1.724,0-3.118-1.465-3.118-3.273V4.879
	c0-1.808,1.395-3.273,3.118-3.273h13.099c1.721,0,3.117,1.466,3.117,3.273V11.53z"/>
<linearGradient id="SVGID_4_" gradientUnits="userSpaceOnUse" x1="11.9653" y1="2.0327" x2="11.9653" y2="11.5279">
	<stop  offset="0" style="stop-color:#FFFFFF;stop-opacity:0.37"/>
	<stop  offset="1" style="stop-color:#FFFFFF;stop-opacity:0"/>
</linearGradient>
<path fill="url(#SVGID_4_)" d="M21.098,8.331c0,1.502-1.32,2.719-2.947,2.719H5.779c-1.627,0-2.945-1.217-2.945-2.719V4.683
	c0-1.502,1.318-2.72,2.945-2.72H18.15c1.627,0,2.947,1.218,2.947,2.72V8.331z"/>
</svg>
