<?xml version="1.0" encoding="utf-8"?>
<!-- Generator: Adobe Illustrator 15.0.2, SVG Export Plug-In . SVG Version: 6.00 Build 0)  -->
<!DOCTYPE svg PUBLIC "-//W3C//DTD SVG 1.1//EN" "http://www.w3.org/Graphics/SVG/1.1/DTD/svg11.dtd">
<svg version="1.1" id="Layer_1" xmlns="http://www.w3.org/2000/svg" xmlns:xlink="http://www.w3.org/1999/xlink" x="0px" y="0px"
	 width="13px" height="13px" viewBox="0 0 13 13" enable-background="new 0 0 13 13" xml:space="preserve">
<radialGradient id="SVGID_1_" cx="129.9727" cy="123.0039" r="4.9636" gradientTransform="matrix(1.6008 0 0 0.2073 -201.9121 -14.1669)" gradientUnits="userSpaceOnUse">
	<stop  offset="0" style="stop-color:#9C9134"/>
	<stop  offset="0.0876" style="stop-color:#A09539;stop-opacity:0.9124"/>
	<stop  offset="0.2456" style="stop-color:#AA9F4E;stop-opacity:0.7544"/>
	<stop  offset="0.4559" style="stop-color:#BBB174;stop-opacity:0.5441"/>
	<stop  offset="0.7108" style="stop-color:#D5CEA9;stop-opacity:0.2892"/>
	<stop  offset="1" style="stop-color:#FFFFFF;stop-opacity:0"/>
</radialGradient>
<ellipse fill="url(#SVGID_1_)" cx="5.999" cy="11.329" rx="8.138" ry="1.053"/>
<g>
	<radialGradient id="SVGID_2_" cx="6.6294" cy="7.0898" r="8.3429" fx="2.2099" fy="7.1721" gradientUnits="userSpaceOnUse">
		<stop  offset="0.0863" style="stop-color:#FDF5A6"/>
		<stop  offset="0.5594" style="stop-color:#EBE012"/>
		<stop  offset="0.7937" style="stop-color:#ECD018"/>
		<stop  offset="1" style="stop-color:#818535"/>
	</radialGradient>
	<path fill="url(#SVGID_2_)" d="M2.7,11.396c-2.016,0-2.841-1.428-1.832-3.172l3.771-6.534c1.008-1.744,2.656-1.744,3.664,0
		l3.771,6.534c1.008,1.744,0.184,3.172-1.832,3.172H2.7z"/>
	<path fill="none" stroke="#DFC922" stroke-width="0.75" stroke-miterlimit="10" d="M2.7,11.396c-2.016,0-2.841-1.428-1.832-3.172
		l3.771-6.534c1.008-1.744,2.656-1.744,3.664,0l3.771,6.534c1.008,1.744,0.184,3.172-1.832,3.172H2.7z"/>
</g>
<linearGradient id="SVGID_3_" gradientUnits="userSpaceOnUse" x1="6.4751" y1="1.2734" x2="6.4751" y2="8.0977">
	<stop  offset="0" style="stop-color:#FFFFFF;stop-opacity:0.28"/>
	<stop  offset="1" style="stop-color:#FFFFFF;stop-opacity:0"/>
</linearGradient>
<path fill="url(#SVGID_3_)" d="M5.151,7.169c-2.015,0-2.839-1.428-1.833-3.174l1.328-2.305c1.008-1.745,2.654-1.745,3.662,0
	l1.326,2.305c1.008,1.747,0.182,3.174-1.834,3.174H5.151z"/>
<linearGradient id="SVGID_4_" gradientUnits="userSpaceOnUse" x1="6.4946" y1="1.416" x2="6.4946" y2="6.8555">
	<stop  offset="0" style="stop-color:#FFFFFF;stop-opacity:0.49"/>
	<stop  offset="1" style="stop-color:#FFFFFF;stop-opacity:0"/>
</linearGradient>
<path fill="url(#SVGID_4_)" d="M6.043,6.635c-2.015,0-2.903-1.463-1.974-3.251l0.736-1.417c0.929-1.788,2.448-1.788,3.378,0
	L8.92,3.384c0.93,1.789,0.041,3.251-1.975,3.251H6.043z"/>
</svg>
