<svg xmlns="http://www.w3.org/2000/svg" xmlns:xlink="http://www.w3.org/1999/xlink" width="128" height="128"><defs><filter id="a" filterUnits="objectBoundingBox" x="0" y="0" width="1" height="1"><feColorMatrix in="SourceGraphic" values="0 0 0 0 1 0 0 0 0 1 0 0 0 0 1 0 0 0 1 0"/></filter><linearGradient id="c" gradientUnits="userSpaceOnUse" x1="56" y1="252" x2="0" y2="244" gradientTransform="translate(8 -156)"><stop offset="0" stop-color="#fff"/><stop offset="1" stop-color="#fff" stop-opacity="0"/></linearGradient><clipPath id="b"><path d="M0 0h192v152H0z"/></clipPath><linearGradient id="d" x1="147.31" x2="185.85" y1="830.88" y2="869.42" gradientTransform="translate(351.45 336.28)" gradientUnits="userSpaceOnUse"><stop offset="0" stop-color="#f2f2f2"/><stop offset="1" stop-color="gray" stop-opacity=".8"/></linearGradient><linearGradient xlink:href="#d" id="n" gradientUnits="userSpaceOnUse" gradientTransform="translate(17.019 -32.36) scale(.30173)" x1="175.59" y1="822.553" x2="175.59" y2="881.22"/><radialGradient xlink:href="#e" id="l" cx="43.686" cy="143.706" fx="43.686" fy="143.706" r="60.256" gradientUnits="userSpaceOnUse" gradientTransform="matrix(.87972 0 0 .87972 8.518 17.58)"/><linearGradient id="e"><stop offset="0" stop-color="#fff"/><stop offset="1" stop-color="#fff" stop-opacity="0"/></linearGradient><radialGradient xlink:href="#e" id="m" gradientUnits="userSpaceOnUse" gradientTransform="matrix(.87972 0 0 .87972 8.518 17.58)" cx="139.739" cy="132.453" fx="139.739" fy="132.453" r="60.256"/><linearGradient xlink:href="#f" id="k" x1="40.224" y1="62.82" x2="112.466" y2="72.596" gradientUnits="userSpaceOnUse"/><linearGradient id="f"><stop offset="0" stop-color="#57e389"/><stop offset="1" stop-color="#1a5fb4"/></linearGradient><radialGradient xlink:href="#g" id="j" cx="-85.993" cy="248.083" fx="-85.993" fy="248.083" r="46" gradientUnits="userSpaceOnUse" gradientTransform="matrix(1.36685 0 0 1.36685 182.27 -278.952)"/><linearGradient id="g"><stop offset="0" stop-color="#c0bfbc"/><stop offset=".874" stop-color="#deddda"/><stop offset=".917" stop-color="#b1b0ad"/><stop offset="1" stop-color="#77767b"/></linearGradient><linearGradient gradientTransform="translate(-7.144 -165.451)" xlink:href="#h" id="i" x1="11.62" y1="231.745" x2="132.13" y2="231.745" gradientUnits="userSpaceOnUse"/><linearGradient id="h"><stop offset="0" stop-color="#9a9996"/><stop offset=".154" stop-color="#b4b2af" stop-opacity=".988"/><stop offset=".35" stop-color="#8b8a86" stop-opacity=".976"/><stop offset=".733" stop-color="#999895" stop-opacity=".969"/><stop offset=".896" stop-color="#d6d5d4" stop-opacity=".949"/><stop offset="1" stop-color="#787773" stop-opacity=".941"/></linearGradient></defs><g transform="translate(-.73 -.527)"><circle r="60.255" cy="66.293" cx="64.731" fill="url(#i)" enable-background="new"/><circle cx="64.731" cy="62.762" r="60.255" fill="url(#j)" enable-background="new"/><rect style="marker:none" width="116" height="116.007" x="6.856" y="4.541" rx="58" ry="56.986" fill="#d5d3cf" enable-background="new"/><ellipse cx="64.731" cy="60.624" rx="47.879" ry="48.075" fill="#a6a5a3" enable-background="new"/><ellipse ry="48.075" rx="47.879" cy="62.473" cx="64.731" fill="#f6f5f4" enable-background="new"/><path d="M43.973 46.629c-6.255 6.65-10.162 15.465-10.889 24.566-.748 9.36 1.88 18.953 7.294 26.625l.91-.677a35.724 35.724 0 0 1-5-18.143C36.278 68.955 40.77 58.99 48.3 52.344zm27.902-10.842a42.558 42.558 0 0 0-21.65 6.943l3.886 5.41A34.987 34.987 0 0 1 72 43.288c8.514.04 16.983 3.348 23.226 9.137 6.243 5.79 10.184 14.013 10.72 22.51a33.418 33.418 0 0 1-3.615 17.286l10.282 4.436A43.918 43.918 0 0 0 116.338 79c.003-11.54-4.79-23.02-13.05-31.079-8.258-8.06-19.882-12.575-31.413-12.134z" style="marker:none" transform="translate(-1.982 -11.043) scale(.90405)" fill="url(#k)" enable-background="new"/><path d="M51.192 19.877l2.623 37.385a12.718 12.718 0 0 0-.576 11.465c2.86 6.416 10.38 9.299 16.797 6.437 6.415-2.86 9.298-10.38 6.437-16.795a12.718 12.718 0 0 0-6.088-6.271z" style="marker:none" color="#000" overflow="visible" fill="#ccc" enable-background="accumulate"/><path style="marker:none" fill="#deddda" enable-background="new" d="M54.481 85.674h20.75v2.25h-20.75zM60.231 90.424h9.25v2.25h-9.25z"/><path style="marker:none" d="M51.192 19.877l9.454 31.193 9.74 1.028z" color="#000" overflow="visible" fill="#c0bfbc" enable-background="accumulate"/><g opacity=".572"><path d="M71.875 19.957a60.255 60.255 0 0 0-60.256 60.256 60.255 60.255 0 0 0 60.256 60.256 60.255 60.255 0 0 0 60.256-60.256 60.255 60.255 0 0 0-60.256-60.256zM72 21.992c32.132 0 58 25.416 58 56.987v2.035C130 112.584 104.132 138 72 138c-32.132 0-58-25.416-58-56.986v-2.035c0-31.57 25.868-56.987 58-56.987z" transform="translate(-7.144 -17.451)" fill="url(#l)" enable-background="new"/><path transform="translate(-7.144 -17.451)" d="M71.875 19.957a60.255 60.255 0 0 0-60.256 60.256 60.255 60.255 0 0 0 60.256 60.256 60.255 60.255 0 0 0 60.256-60.256 60.255 60.255 0 0 0-60.256-60.256zM72 21.992c32.132 0 58 25.416 58 56.987v2.035C130 112.584 104.132 138 72 138c-32.132 0-58-25.416-58-56.986v-2.035c0-31.57 25.868-56.987 58-56.987z" fill="url(#m)" enable-background="new"/></g><g transform="translate(-5.144 -163.451)"><circle style="marker:none" cx="70" cy="227" r="13.17" fill="#9a9996"/><circle r="7.513" cy="227" cx="70" style="marker:none" fill="#f6f5f4"/><circle cx="70" cy="229.106" r="13.276" opacity=".2" enable-background="new"/><circle r="13.276" cy="226.894" cx="70" fill="url(#n)" enable-background="new"/><circle r="12.17" cy="-225.787" cx="70" transform="scale(1 -1)" fill="#ccc" enable-background="new"/></g></g></svg>